<svg xmlns="http://www.w3.org/2000/svg" width="44" height="44" viewBox="0 0 44 44"><defs><style>.a{fill:none;}.b{fill:#151716;}</style></defs><g transform="translate(0.068)"><rect class="a" width="44" height="44" transform="translate(-0.068)"/><g transform="translate(7.204 13)"><path class="b" d="M3.818,7.636A.818.818,0,1,1,3.818,6H31.636a.818.818,0,0,1,0,1.636Zm0,8.182a.818.818,0,0,1,0-1.636H31.636a.818.818,0,0,1,0,1.636Zm0,8.182a.818.818,0,0,1,0-1.636H31.636a.818.818,0,0,1,0,1.636Z" transform="translate(-3 -6)"/></g></g></svg>